<?xml version="1.0" encoding="UTF-8"?>
<svg width="64" height="64" viewBox="0 0 64 64" fill="none" xmlns="http://www.w3.org/2000/svg">
    <path d="M48 16H16C14.343 16 13 17.343 13 19V45C13 46.657 14.343 48 16 48H48C49.657 48 51 46.657 51 45V19C51 17.343 49.657 16 48 16ZM48 45H16V19H48V45Z" fill="#2E7D32"/>
    <path d="M32 24C27.582 24 24 27.582 24 32C24 36.418 27.582 40 32 40C36.418 40 40 36.418 40 32C40 27.582 36.418 24 32 24ZM32 38C28.686 38 26 35.314 26 32C26 28.686 28.686 26 32 26C35.314 26 38 28.686 38 32C38 35.314 35.314 38 32 38Z" fill="#66BB6A"/>
    <path d="M32 28C30.895 28 30 28.895 30 30V34C30 35.105 30.895 36 32 36C33.105 36 34 35.105 34 34V30C34 28.895 33.105 28 32 28Z" fill="#2E7D32"/>
</svg> 